<?xml version="1.0" standalone="no"?>
<!DOCTYPE svg PUBLIC "-//W3C//DTD SVG 20010904//EN"
 "http://www.w3.org/TR/2001/REC-SVG-20010904/DTD/svg10.dtd">
<svg version="1.0" xmlns="http://www.w3.org/2000/svg"
 width="1024.000000pt" height="421.000000pt" viewBox="0 0 1024.000000 421.000000"
 preserveAspectRatio="xMidYMid meet">

<g transform="translate(0.000000,421.000000) scale(0.100000,-0.100000)"
fill="#0d1116" stroke="#0d1116">
<path d="M80 2110 l0 -2020 5040 0 5040 0 0 2020 0 2020 -5040 0 -5040 0 0
-2020z m2440 1615 c0 -37 -22 -49 -34 -19 -9 23 2 54 20 54 9 0 14 -11 14 -35z
m49 12 c0 -9 -2 -8 -6 1 -2 6 -10 9 -15 6 -7 -4 -8 -2 -4 5 9 13 26 5 25 -12z
m50 0 c0 -9 -2 -8 -6 1 -2 6 -10 9 -15 6 -7 -4 -8 -2 -4 5 9 13 26 5 25 -12z
m100 0 c0 -9 -2 -8 -6 1 -2 6 -10 9 -15 6 -7 -4 -8 -2 -4 5 9 13 26 5 25 -12z
m50 0 c0 -9 -2 -8 -6 1 -2 6 -10 9 -15 6 -7 -4 -8 -2 -4 5 9 13 26 5 25 -12z
m250 0 c0 -9 -2 -8 -6 1 -2 6 -10 9 -15 6 -7 -4 -8 -2 -4 5 9 13 26 5 25 -12z
m100 0 c0 -9 -2 -8 -6 1 -2 6 -10 9 -15 6 -7 -4 -8 -2 -4 5 9 13 26 5 25 -12z
m50 0 c0 -9 -2 -8 -6 1 -2 6 -10 9 -15 6 -7 -4 -8 -2 -4 5 9 13 26 5 25 -12z
m45 15 c3 -5 -1 -9 -9 -9 -8 0 -12 4 -9 9 3 4 7 8 9 8 2 0 6 -4 9 -8z m50 0
c3 -5 -1 -9 -9 -9 -8 0 -12 4 -9 9 3 4 7 8 9 8 2 0 6 -4 9 -8z m50 0 c3 -5 -1
-9 -9 -9 -8 0 -12 4 -9 9 3 4 7 8 9 8 2 0 6 -4 9 -8z m55 -15 c0 -9 -2 -8 -6
1 -2 6 -10 9 -15 6 -7 -4 -8 -2 -4 5 9 13 26 5 25 -12z m50 0 c0 -9 -2 -8 -6
1 -2 6 -10 9 -15 6 -7 -4 -8 -2 -4 5 9 13 26 5 25 -12z m150 0 c0 -9 -2 -8 -6
1 -2 6 -10 9 -15 6 -7 -4 -8 -2 -4 5 9 13 26 5 25 -12z m350 0 c0 -9 -2 -8 -6
1 -2 6 -10 9 -15 6 -7 -4 -8 -2 -4 5 9 13 26 5 25 -12z m153 6 c6 -27 -3 -53
-17 -53 -17 0 -27 28 -20 51 8 24 32 25 37 2z m-1665 -40 c-3 -10 -5 -2 -5 17
0 19 2 27 5 18 2 -10 2 -26 0 -35z m52 15 c-1 -31 -1 -31 -8 -8 -5 14 -6 28
-4 33 9 15 13 6 12 -25z m198 -15 c-3 -10 -5 -2 -5 17 0 19 2 27 5 18 2 -10 2
-26 0 -35z m150 0 c-3 -10 -5 -2 -5 17 0 19 2 27 5 18 2 -10 2 -26 0 -35z m50
0 c-3 -10 -5 -2 -5 17 0 19 2 27 5 18 2 -10 2 -26 0 -35z m50 0 c-3 -10 -5 -2
-5 17 0 19 2 27 5 18 2 -10 2 -26 0 -35z m50 0 c-3 -10 -5 -2 -5 17 0 19 2 27
5 18 2 -10 2 -26 0 -35z m100 0 c-3 -10 -5 -2 -5 17 0 19 2 27 5 18 2 -10 2
-26 0 -35z m400 0 c-3 -10 -5 -2 -5 17 0 19 2 27 5 18 2 -10 2 -26 0 -35z m50
0 c-3 -10 -5 -2 -5 17 0 19 2 27 5 18 2 -10 2 -26 0 -35z m100 0 c-3 -10 -5
-2 -5 17 0 19 2 27 5 18 2 -10 2 -26 0 -35z m50 0 c-3 -10 -5 -2 -5 17 0 19 2
27 5 18 2 -10 2 -26 0 -35z m50 0 c-3 -10 -5 -2 -5 17 0 19 2 27 5 18 2 -10 2
-26 0 -35z m50 0 c-3 -10 -5 -2 -5 17 0 19 2 27 5 18 2 -10 2 -26 0 -35z m50
0 c-3 -10 -5 -2 -5 17 0 19 2 27 5 18 2 -10 2 -26 0 -35z m50 0 c-3 -10 -5 -2
-5 17 0 19 2 27 5 18 2 -10 2 -26 0 -35z m100 0 c-3 -10 -5 -2 -5 17 0 19 2
27 5 18 2 -10 2 -26 0 -35z m50 0 c-3 -10 -5 -2 -5 17 0 19 2 27 5 18 2 -10 2
-26 0 -35z m100 0 c-3 -10 -5 -2 -5 17 0 19 2 27 5 18 2 -10 2 -26 0 -35z
m-1544 -4 c-8 -8 -13 -7 -18 2 -5 8 -4 10 3 5 7 -4 12 -2 12 5 0 7 3 9 7 6 4
-4 2 -12 -4 -18z m52 2 c-8 -14 -25 -14 -25 0 0 5 5 7 10 4 6 -3 10 -1 10 6 0
7 3 10 6 6 3 -3 3 -10 -1 -16z m100 0 c-8 -14 -25 -14 -25 0 0 5 5 7 10 4 6
-3 10 -1 10 6 0 7 3 10 6 6 3 -3 3 -10 -1 -16z m50 0 c-8 -14 -25 -14 -25 0 0
5 5 7 10 4 6 -3 10 -1 10 6 0 7 3 10 6 6 3 -3 3 -10 -1 -16z m250 0 c-8 -14
-25 -14 -25 0 0 5 5 7 10 4 6 -3 10 -1 10 6 0 7 3 10 6 6 3 -3 3 -10 -1 -16z
m100 0 c-8 -14 -25 -14 -25 0 0 5 5 7 10 4 6 -3 10 -1 10 6 0 7 3 10 6 6 3 -3
3 -10 -1 -16z m300 0 c-8 -14 -25 -14 -25 0 0 5 5 7 10 4 6 -3 10 -1 10 6 0 7
3 10 6 6 3 -3 3 -10 -1 -16z m150 0 c-8 -14 -25 -14 -25 0 0 5 5 7 10 4 6 -3
10 -1 10 6 0 7 3 10 6 6 3 -3 3 -10 -1 -16z m350 0 c-8 -14 -25 -14 -25 0 0 5
5 7 10 4 6 -3 10 -1 10 6 0 7 3 10 6 6 3 -3 3 -10 -1 -16z m-745 3 c0 -8 -19
-13 -24 -6 -3 5 1 9 9 9 8 0 15 -2 15 -3z m50 0 c0 -8 -19 -13 -24 -6 -3 5 1
9 9 9 8 0 15 -2 15 -3z m50 0 c0 -8 -19 -13 -24 -6 -3 5 1 9 9 9 8 0 15 -2 15
-3z m50 0 c0 -8 -19 -13 -24 -6 -3 5 1 9 9 9 8 0 15 -2 15 -3z m50 0 c0 -8
-19 -13 -24 -6 -3 5 1 9 9 9 8 0 15 -2 15 -3z m-950 -71 c1 -17 2 -17 15 1 14
18 35 14 35 -7 0 -8 -3 -8 -9 2 -12 18 -25 -4 -16 -27 5 -14 7 -14 15 -2 8 13
10 12 10 -2 0 -10 -5 -18 -11 -18 -7 0 -18 8 -25 18 -13 16 -13 16 -14 0 0
-23 -26 -23 -34 -2 -9 23 2 54 20 54 8 0 14 -8 14 -17z m1650 0 c0 -15 -2 -16
-10 -3 -8 12 -10 12 -15 -2 -9 -23 4 -45 16 -27 7 11 9 10 9 -3 0 -23 -26 -23
-34 -2 -9 23 2 54 20 54 8 0 14 -8 14 -17z m37 -40 c-3 -10 -5 -2 -5 17 0 19
2 27 5 18 2 -10 2 -26 0 -35z m-1789 -74 c3 -12 2 -12 -7 1 -9 12 -11 12 -16
-2 -9 -23 4 -45 16 -27 7 11 9 10 9 -3 0 -23 -26 -23 -34 -2 -8 22 3 56 17 51
6 -2 12 -10 15 -18z m96 13 c3 -5 -1 -9 -9 -9 -8 0 -12 4 -9 9 3 4 7 8 9 8 2
0 6 -4 9 -8z m802 -10 c1 -7 0 -8 -3 -2 -2 5 -9 8 -14 4 -5 -3 -9 0 -9 6 0 15
23 7 26 -8z m52 -3 c3 -12 2 -12 -7 1 -9 12 -11 12 -16 -2 -9 -24 4 -45 17
-27 8 12 9 11 6 0 -3 -8 -9 -16 -15 -18 -14 -5 -25 25 -17 49 6 21 26 20 32
-3z m846 13 c3 -5 -1 -9 -9 -9 -8 0 -12 4 -9 9 3 4 7 8 9 8 2 0 6 -4 9 -8z
m56 -9 c1 -17 2 -17 15 1 14 18 35 14 35 -7 0 -8 -3 -8 -9 2 -12 18 -25 -4
-16 -27 5 -14 7 -14 15 -2 6 9 10 10 10 3 0 -21 -21 -25 -35 -7 -13 18 -14 18
-15 2 0 -23 -26 -23 -34 -2 -9 23 2 54 20 54 8 0 14 -8 14 -17z m-1811 -25
c-1 -31 -1 -31 -8 -8 -5 14 -6 28 -4 33 9 15 13 6 12 -25z m948 -15 c-3 -10
-5 -2 -5 17 0 19 2 27 5 18 2 -10 2 -26 0 -35z m-96 8 c6 9 9 10 9 2 0 -19
-21 -27 -31 -12 -5 8 -9 19 -9 24 1 6 5 2 11 -9 9 -15 13 -16 20 -5z m-791 -7
c0 -8 -19 -13 -24 -6 -3 5 1 9 9 9 8 0 15 -2 15 -3z m1700 0 c0 -8 -19 -13
-24 -6 -3 5 1 9 9 9 8 0 15 -2 15 -3z m-2056 -62 c3 -5 -1 -9 -9 -9 -8 0 -12
4 -9 9 3 4 7 8 9 8 2 0 6 -4 9 -8z m156 -27 c0 -37 -22 -49 -34 -19 -9 23 2
54 20 54 9 0 14 -11 14 -35z m1048 14 c3 -12 2 -12 -7 1 -9 12 -11 12 -16 -2
-9 -23 4 -45 16 -27 7 11 9 10 9 -3 0 -23 -26 -23 -34 -2 -8 22 3 56 17 51 6
-2 12 -10 15 -18z m296 13 c3 -5 -1 -9 -9 -9 -8 0 -12 4 -9 9 3 4 7 8 9 8 2 0
6 -4 9 -8z m756 -27 c0 -37 -22 -49 -34 -19 -9 23 2 54 20 54 9 0 14 -11 14
-35z m48 14 c3 -12 2 -12 -7 1 -9 12 -11 12 -16 -2 -9 -23 4 -45 16 -27 7 11
9 10 9 -3 0 -23 -26 -23 -34 -2 -8 22 3 56 17 51 6 -2 12 -10 15 -18z m-2261
-36 c-3 -10 -5 -2 -5 17 0 19 2 27 5 18 2 -10 2 -26 0 -35z m50 0 c-3 -10 -5
-2 -5 17 0 19 2 27 5 18 2 -10 2 -26 0 -35z m100 0 c-3 -10 -5 -2 -5 17 0 19
2 27 5 18 2 -10 2 -26 0 -35z m700 0 c-3 -10 -5 -2 -5 17 0 19 2 27 5 18 2
-10 2 -26 0 -35z m250 0 c-3 -10 -5 -2 -5 17 0 19 2 27 5 18 2 -10 2 -26 0
-35z m100 0 c-3 -10 -5 -2 -5 17 0 19 2 27 5 18 2 -10 2 -26 0 -35z m300 0
c-3 -10 -5 -2 -5 17 0 19 2 27 5 18 2 -10 2 -26 0 -35z m650 0 c-3 -10 -5 -2
-5 17 0 19 2 27 5 18 2 -10 2 -26 0 -35z m150 0 c-3 -10 -5 -2 -5 17 0 19 2
27 5 18 2 -10 2 -26 0 -35z m50 0 c-3 -10 -5 -2 -5 17 0 19 2 27 5 18 2 -10 2
-26 0 -35z m-2387 1 c0 -8 -19 -13 -24 -6 -3 5 1 9 9 9 8 0 15 -2 15 -3z
m1500 0 c0 -8 -19 -13 -24 -6 -3 5 1 9 9 9 8 0 15 -2 15 -3z m-1604 -72 c1 -7
0 -8 -3 -2 -2 5 -9 8 -14 4 -5 -3 -9 0 -9 6 0 15 23 7 26 -8z m54 3 c0 -8 6
-15 13 -16 10 0 10 -2 0 -6 -7 -2 -13 -11 -13 -19 0 -19 -26 -18 -34 2 -4 9
-4 25 -1 35 7 23 35 25 35 4z m44 7 c3 -5 -1 -9 -9 -9 -8 0 -12 4 -9 9 3 4 7
8 9 8 2 0 6 -4 9 -8z m1400 0 c3 -5 -1 -9 -9 -9 -8 0 -12 4 -9 9 3 4 7 8 9 8
2 0 6 -4 9 -8z m1005 -15 c0 -9 -2 -8 -6 1 -2 6 -10 9 -15 6 -7 -4 -8 -2 -4 5
9 13 26 5 25 -12z m53 6 c6 -27 -3 -53 -17 -53 -17 0 -27 28 -20 51 8 24 32
25 37 2z m-1915 -40 c-3 -10 -5 -2 -5 17 0 19 2 27 5 18 2 -10 2 -26 0 -35z
m450 0 c-3 -10 -5 -2 -5 17 0 19 2 27 5 18 2 -10 2 -26 0 -35z m850 0 c-3 -10
-5 -2 -5 17 0 19 2 27 5 18 2 -10 2 -26 0 -35z m650 0 c-3 -10 -5 -2 -5 17 0
19 2 27 5 18 2 -10 2 -26 0 -35z m-2592 -2 c-8 -14 -25 -14 -25 0 0 5 5 7 10
4 6 -3 10 -1 10 6 0 7 3 10 6 6 3 -3 3 -10 -1 -16z m105 3 c0 -8 -19 -13 -24
-6 -3 5 1 9 9 9 8 0 15 -2 15 -3z m1400 0 c0 -8 -19 -13 -24 -6 -3 5 1 9 9 9
8 0 15 -2 15 -3z m1000 0 c0 -8 -19 -13 -24 -6 -3 5 1 9 9 9 8 0 15 -2 15 -3z
m100 -89 c0 -37 -22 -49 -34 -19 -9 23 2 54 20 54 9 0 14 -11 14 -35z m-2613
-22 c-3 -10 -5 -2 -5 17 0 19 2 27 5 18 2 -10 2 -26 0 -35z m50 0 c-3 -10 -5
-2 -5 17 0 19 2 27 5 18 2 -10 2 -26 0 -35z m2500 0 c-3 -10 -5 -2 -5 17 0 19
2 27 5 18 2 -10 2 -26 0 -35z m-2537 -88 c0 -37 -22 -49 -34 -19 -9 23 2 54
20 54 9 0 14 -11 14 -35z m752 18 c6 -27 -3 -53 -17 -53 -17 0 -27 28 -20 51
8 24 32 25 37 2z m1848 -18 c0 -37 -22 -49 -34 -19 -9 23 2 54 20 54 9 0 14
-11 14 -35z m-2563 -22 c-3 -10 -5 -2 -5 17 0 19 2 27 5 18 2 -10 2 -26 0 -35z
m650 0 c-3 -10 -5 -2 -5 17 0 19 2 27 5 18 2 -10 2 -26 0 -35z m100 0 c-3 -10
-5 -2 -5 17 0 19 2 27 5 18 2 -10 2 -26 0 -35z m1000 0 c-3 -10 -5 -2 -5 17 0
19 2 27 5 18 2 -10 2 -26 0 -35z m50 0 c-3 -10 -5 -2 -5 17 0 19 2 27 5 18 2
-10 2 -26 0 -35z m50 0 c-3 -10 -5 -2 -5 17 0 19 2 27 5 18 2 -10 2 -26 0 -35z
m650 0 c-3 -10 -5 -2 -5 17 0 19 2 27 5 18 2 -10 2 -26 0 -35z m-2487 -88 c0
-37 -22 -49 -34 -19 -9 23 2 54 20 54 9 0 14 -11 14 -35z m544 27 c3 -5 -1 -9
-9 -9 -8 0 -12 4 -9 9 3 4 7 8 9 8 2 0 6 -4 9 -8z m52 -10 c1 -7 0 -8 -3 -2
-2 5 -9 8 -14 4 -5 -3 -9 0 -9 6 0 15 23 7 26 -8z m48 10 c3 -5 -1 -9 -9 -9
-8 0 -12 4 -9 9 3 4 7 8 9 8 2 0 6 -4 9 -8z m850 0 c3 -5 -1 -9 -9 -9 -8 0
-12 4 -9 9 3 4 7 8 9 8 2 0 6 -4 9 -8z m50 0 c3 -5 -1 -9 -9 -9 -8 0 -12 4 -9
9 3 4 7 8 9 8 2 0 6 -4 9 -8z m352 -10 c1 -7 0 -8 -3 -2 -2 5 -9 8 -14 4 -5
-3 -9 0 -9 6 0 15 23 7 26 -8z m604 -17 c0 -37 -22 -49 -34 -19 -9 23 2 54 20
54 9 0 14 -11 14 -35z m50 0 c0 -37 -22 -49 -34 -19 -9 23 2 54 20 54 9 0 14
-11 14 -35z m-2613 -22 c-3 -10 -5 -2 -5 17 0 19 2 27 5 18 2 -10 2 -26 0 -35z
m1000 0 c-3 -10 -5 -2 -5 17 0 19 2 27 5 18 2 -10 2 -26 0 -35z m50 0 c-3 -10
-5 -2 -5 17 0 19 2 27 5 18 2 -10 2 -26 0 -35z m50 0 c-3 -10 -5 -2 -5 17 0
19 2 27 5 18 2 -10 2 -26 0 -35z m400 0 c-3 -10 -5 -2 -5 17 0 19 2 27 5 18 2
-10 2 -26 0 -35z m400 0 c-3 -10 -5 -2 -5 17 0 19 2 27 5 18 2 -10 2 -26 0
-35z m100 0 c-3 -10 -5 -2 -5 17 0 19 2 27 5 18 2 -10 2 -26 0 -35z m-1342 -2
c-8 -14 -25 -14 -25 0 0 5 5 7 10 4 6 -3 10 -1 10 6 0 7 3 10 6 6 3 -3 3 -10
-1 -16z m1300 0 c-8 -14 -25 -14 -25 0 0 5 5 7 10 4 6 -3 10 -1 10 6 0 7 3 10
6 6 3 -3 3 -10 -1 -16z m-1345 3 c0 -8 -19 -13 -24 -6 -3 5 1 9 9 9 8 0 15 -2
15 -3z m100 0 c0 -8 -19 -13 -24 -6 -3 5 1 9 9 9 8 0 15 -2 15 -3z m850 0 c0
-8 -19 -13 -24 -6 -3 5 1 9 9 9 8 0 15 -2 15 -3z m50 0 c0 -8 -19 -13 -24 -6
-3 5 1 9 9 9 8 0 15 -2 15 -3z m-1600 -89 c0 -37 -22 -49 -34 -19 -9 23 2 54
20 54 9 0 14 -11 14 -35z m50 0 c0 -37 -22 -49 -34 -19 -9 23 2 54 20 54 9 0
14 -11 14 -35z m800 0 c0 -37 -22 -49 -34 -19 -9 23 2 54 20 54 9 0 14 -11 14
-35z m150 0 c0 -37 -22 -49 -34 -19 -9 23 2 54 20 54 9 0 14 -11 14 -35z m100
0 c0 -37 -22 -49 -34 -19 -9 23 2 54 20 54 9 0 14 -11 14 -35z m50 0 c0 -37
-22 -49 -34 -19 -9 23 2 54 20 54 9 0 14 -11 14 -35z m50 0 c0 -37 -22 -49
-34 -19 -9 23 2 54 20 54 9 0 14 -11 14 -35z m200 0 c0 -37 -22 -49 -34 -19
-9 23 2 54 20 54 9 0 14 -11 14 -35z m50 0 c0 -37 -22 -49 -34 -19 -9 23 2 54
20 54 9 0 14 -11 14 -35z m100 0 c0 -37 -22 -49 -34 -19 -9 23 2 54 20 54 9 0
14 -11 14 -35z m100 18 c1 -17 1 -17 14 0 7 9 18 17 25 17 6 0 11 -8 11 -17 1
-17 1 -17 14 0 21 27 36 20 36 -18 0 -38 -15 -45 -36 -17 -13 16 -13 16 -14 0
0 -10 -5 -18 -11 -18 -7 0 -18 8 -25 18 -13 16 -13 16 -14 0 0 -23 -26 -23
-34 -2 -9 23 2 54 20 54 8 0 14 -8 14 -17z m900 -18 c0 -37 -22 -49 -34 -19
-9 23 2 54 20 54 9 0 14 -11 14 -35z m-1661 -7 c-1 -31 -1 -31 -8 -8 -5 14 -6
28 -4 33 9 15 13 6 12 -25z m48 -15 c-3 -10 -5 -2 -5 17 0 19 2 27 5 18 2 -10
2 -26 0 -35z m100 0 c-3 -10 -5 -2 -5 17 0 19 2 27 5 18 2 -10 2 -26 0 -35z
m200 0 c-3 -10 -5 -2 -5 17 0 19 2 27 5 18 2 -10 2 -26 0 -35z m100 0 c-3 -10
-5 -2 -5 17 0 19 2 27 5 18 2 -10 2 -26 0 -35z m150 0 c-3 -10 -5 -2 -5 17 0
19 2 27 5 18 2 -10 2 -26 0 -35z m100 0 c-3 -10 -5 -2 -5 17 0 19 2 27 5 18 2
-10 2 -26 0 -35z m1000 0 c-3 -10 -5 -2 -5 17 0 19 2 27 5 18 2 -10 2 -26 0
-35z m-1593 -61 c3 -5 -1 -9 -9 -9 -8 0 -12 4 -9 9 3 4 7 8 9 8 2 0 6 -4 9 -8z
m156 -9 c0 -15 -2 -16 -10 -3 -8 12 -10 12 -15 -2 -9 -23 4 -45 16 -27 7 11 9
10 9 -3 0 -23 -26 -23 -34 -2 -9 23 2 54 20 54 8 0 14 -8 14 -17z m50 0 c0
-15 -2 -16 -10 -3 -8 12 -10 12 -15 -2 -9 -23 4 -45 16 -27 7 11 9 10 9 -3 0
-23 -26 -23 -34 -2 -9 23 2 54 20 54 8 0 14 -8 14 -17z m50 0 c0 -15 -2 -16
-10 -3 -8 12 -10 12 -15 -2 -9 -23 4 -45 16 -27 7 11 9 10 9 -3 0 -23 -26 -23
-34 -2 -9 23 2 54 20 54 8 0 14 -8 14 -17z m50 -18 c0 -37 -22 -49 -34 -19 -9
23 2 54 20 54 9 0 14 -11 14 -35z m1300 0 c0 -37 -22 -49 -34 -19 -9 23 2 54
20 54 9 0 14 -11 14 -35z m-2613 -22 c-3 -10 -5 -2 -5 17 0 19 2 27 5 18 2
-10 2 -26 0 -35z m50 0 c-3 -10 -5 -2 -5 17 0 19 2 27 5 18 2 -10 2 -26 0 -35z
m450 0 c-3 -10 -5 -2 -5 17 0 19 2 27 5 18 2 -10 2 -26 0 -35z m550 0 c-3 -10
-5 -2 -5 17 0 19 2 27 5 18 2 -10 2 -26 0 -35z m50 0 c-3 -10 -5 -2 -5 17 0
19 2 27 5 18 2 -10 2 -26 0 -35z m250 0 c-3 -10 -5 -2 -5 17 0 19 2 27 5 18 2
-10 2 -26 0 -35z m50 0 c-3 -10 -5 -2 -5 17 0 19 2 27 5 18 2 -10 2 -26 0 -35z
m50 0 c-3 -10 -5 -2 -5 17 0 19 2 27 5 18 2 -10 2 -26 0 -35z m50 0 c-3 -10
-5 -2 -5 17 0 19 2 27 5 18 2 -10 2 -26 0 -35z m50 0 c-3 -10 -5 -2 -5 17 0
19 2 27 5 18 2 -10 2 -26 0 -35z m50 0 c-3 -10 -5 -2 -5 17 0 19 2 27 5 18 2
-10 2 -26 0 -35z m500 0 c-3 -10 -5 -2 -5 17 0 19 2 27 5 18 2 -10 2 -26 0
-35z m50 0 c-3 -10 -5 -2 -5 17 0 19 2 27 5 18 2 -10 2 -26 0 -35z m400 0 c-3
-10 -5 -2 -5 17 0 19 2 27 5 18 2 -10 2 -26 0 -35z m-1537 1 c0 -8 -19 -13
-24 -6 -3 5 1 9 9 9 8 0 15 -2 15 -3z m-1000 -89 c0 -37 -22 -49 -34 -19 -9
23 2 54 20 54 9 0 14 -11 14 -35z m50 0 c0 -37 -22 -49 -34 -19 -9 23 2 54 20
54 9 0 14 -11 14 -35z m400 0 c0 -37 -22 -49 -34 -19 -9 23 2 54 20 54 9 0 14
-11 14 -35z m44 27 c3 -5 -1 -9 -9 -9 -8 0 -12 4 -9 9 3 4 7 8 9 8 2 0 6 -4 9
-8z m100 0 c3 -5 -1 -9 -9 -9 -8 0 -12 4 -9 9 3 4 7 8 9 8 2 0 6 -4 9 -8z
m704 -13 c3 -12 2 -12 -7 1 -9 12 -11 12 -16 -2 -9 -23 4 -45 16 -27 7 11 9
10 9 -3 0 -23 -26 -23 -34 -2 -8 22 3 56 17 51 6 -2 12 -10 15 -18z m146 13
c3 -5 -1 -9 -9 -9 -8 0 -12 4 -9 9 3 4 7 8 9 8 2 0 6 -4 9 -8z m650 0 c3 -5
-1 -9 -9 -9 -8 0 -12 4 -9 9 3 4 7 8 9 8 2 0 6 -4 9 -8z m456 -27 c0 -37 -22
-49 -34 -19 -9 23 2 54 20 54 9 0 14 -11 14 -35z m-2163 -22 c-3 -10 -5 -2 -5
17 0 19 2 27 5 18 2 -10 2 -26 0 -35z m400 0 c-3 -10 -5 -2 -5 17 0 19 2 27 5
18 2 -10 2 -26 0 -35z m50 0 c-3 -10 -5 -2 -5 17 0 19 2 27 5 18 2 -10 2 -26
0 -35z m300 0 c-3 -10 -5 -2 -5 17 0 19 2 27 5 18 2 -10 2 -26 0 -35z m100 0
c-3 -10 -5 -2 -5 17 0 19 2 27 5 18 2 -10 2 -26 0 -35z m100 0 c-3 -10 -5 -2
-5 17 0 19 2 27 5 18 2 -10 2 -26 0 -35z m400 0 c-3 -10 -5 -2 -5 17 0 19 2
27 5 18 2 -10 2 -26 0 -35z m50 0 c-3 -10 -5 -2 -5 17 0 19 2 27 5 18 2 -10 2
-26 0 -35z m150 0 c-3 -10 -5 -2 -5 17 0 19 2 27 5 18 2 -10 2 -26 0 -35z m50
0 c-3 -10 -5 -2 -5 17 0 19 2 27 5 18 2 -10 2 -26 0 -35z m150 0 c-3 -10 -5
-2 -5 17 0 19 2 27 5 18 2 -10 2 -26 0 -35z m50 0 c-3 -10 -5 -2 -5 17 0 19 2
27 5 18 2 -10 2 -26 0 -35z m400 0 c-3 -10 -5 -2 -5 17 0 19 2 27 5 18 2 -10
2 -26 0 -35z m-2087 1 c0 -8 -19 -13 -24 -6 -3 5 1 9 9 9 8 0 15 -2 15 -3z
m100 0 c0 -8 -19 -13 -24 -6 -3 5 1 9 9 9 8 0 15 -2 15 -3z m850 0 c0 -8 -19
-13 -24 -6 -3 5 1 9 9 9 8 0 15 -2 15 -3z m650 0 c0 -8 -19 -13 -24 -6 -3 5 1
9 9 9 8 0 15 -2 15 -3z m-1601 -77 c0 -9 -2 -8 -6 1 -2 6 -10 9 -15 6 -7 -4
-8 -2 -4 5 9 13 26 5 25 -12z m351 6 c0 -15 -2 -16 -10 -3 -8 12 -10 12 -15
-2 -9 -23 4 -45 16 -27 7 11 9 10 9 -3 0 -23 -26 -23 -34 -2 -9 23 2 54 20 54
8 0 14 -8 14 -17z m50 -18 c0 -37 -22 -49 -34 -19 -9 23 2 54 20 54 9 0 14
-11 14 -35z m44 27 c3 -5 -1 -9 -9 -9 -8 0 -12 4 -9 9 3 4 7 8 9 8 2 0 6 -4 9
-8z m304 -13 c3 -12 2 -12 -7 1 -9 12 -11 12 -16 -2 -9 -23 4 -45 16 -27 7 11
9 10 9 -3 0 -23 -26 -23 -34 -2 -8 22 3 56 17 51 6 -2 12 -10 15 -18z m50 0
c3 -12 2 -12 -7 1 -9 12 -11 12 -16 -2 -9 -23 4 -45 16 -27 7 11 9 10 9 -3 0
-23 -26 -23 -34 -2 -8 22 3 56 17 51 6 -2 12 -10 15 -18z m50 0 c3 -12 2 -12
-7 1 -9 12 -11 12 -16 -2 -9 -23 4 -45 16 -27 7 11 9 10 9 -3 0 -23 -26 -23
-34 -2 -8 22 3 56 17 51 6 -2 12 -10 15 -18z m296 13 c3 -5 -1 -9 -9 -9 -8 0
-12 4 -9 9 3 4 7 8 9 8 2 0 6 -4 9 -8z m106 -9 c0 -15 -2 -16 -10 -3 -8 12
-10 12 -15 -2 -9 -23 4 -45 16 -27 7 11 9 10 9 -3 0 -23 -26 -23 -34 -2 -9 23
2 54 20 54 8 0 14 -8 14 -17z m94 9 c3 -5 -1 -9 -9 -9 -8 0 -12 4 -9 9 3 4 7
8 9 8 2 0 6 -4 9 -8z m304 -13 c3 -12 2 -12 -7 1 -9 12 -11 12 -16 -2 -9 -23
4 -45 16 -27 7 11 9 10 9 -3 0 -23 -26 -23 -34 -2 -8 22 3 56 17 51 6 -2 12
-10 15 -18z m402 -14 c0 -37 -22 -49 -34 -19 -9 23 2 54 20 54 9 0 14 -11 14
-35z m46 17 c1 -7 0 -8 -3 -2 -2 5 -9 8 -14 4 -5 -3 -9 0 -9 6 0 15 23 7 26
-8z m-2609 -39 c-3 -10 -5 -2 -5 17 0 19 2 27 5 18 2 -10 2 -26 0 -35z m50 0
c-3 -10 -5 -2 -5 17 0 19 2 27 5 18 2 -10 2 -26 0 -35z m300 0 c-3 -10 -5 -2
-5 17 0 19 2 27 5 18 2 -10 2 -26 0 -35z m50 0 c-3 -10 -5 -2 -5 17 0 19 2 27
5 18 2 -10 2 -26 0 -35z m50 0 c-3 -10 -5 -2 -5 17 0 19 2 27 5 18 2 -10 2
-26 0 -35z m300 0 c-3 -10 -5 -2 -5 17 0 19 2 27 5 18 2 -10 2 -26 0 -35z m50
0 c-3 -10 -5 -2 -5 17 0 19 2 27 5 18 2 -10 2 -26 0 -35z m900 0 c-3 -10 -5
-2 -5 17 0 19 2 27 5 18 2 -10 2 -26 0 -35z m100 0 c-3 -10 -5 -2 -5 17 0 19
2 27 5 18 2 -10 2 -26 0 -35z m300 0 c-3 -10 -5 -2 -5 17 0 19 2 27 5 18 2
-10 2 -26 0 -35z m100 0 c-3 -10 -5 -2 -5 17 0 19 2 27 5 18 2 -10 2 -26 0
-35z m50 0 c-3 -10 -5 -2 -5 17 0 19 2 27 5 18 2 -10 2 -26 0 -35z m358 -2
c-8 -14 -25 -14 -25 0 0 5 5 7 10 4 6 -3 10 -1 10 6 0 7 3 10 6 6 3 -3 3 -10
-1 -16z m-2095 3 c0 -8 -19 -13 -24 -6 -3 5 1 9 9 9 8 0 15 -2 15 -3z m450 0
c0 -8 -19 -13 -24 -6 -3 5 1 9 9 9 8 0 15 -2 15 -3z m700 0 c0 -8 -19 -13 -24
-6 -3 5 1 9 9 9 8 0 15 -2 15 -3z m200 0 c0 -8 -19 -13 -24 -6 -3 5 1 9 9 9 8
0 15 -2 15 -3z m-1754 -72 c1 -7 0 -8 -3 -2 -2 5 -9 8 -14 4 -5 -3 -9 0 -9 6
0 15 23 7 26 -8z m698 10 c3 -5 -1 -9 -9 -9 -8 0 -12 4 -9 9 3 4 7 8 9 8 2 0
6 -4 9 -8z m206 -9 c0 -15 -2 -16 -10 -3 -8 12 -10 12 -15 -2 -9 -23 4 -45 16
-27 7 11 9 10 9 -3 0 -23 -26 -23 -34 -2 -9 23 2 54 20 54 8 0 14 -8 14 -17z
m200 -18 c0 -37 -22 -49 -34 -19 -9 23 2 54 20 54 9 0 14 -11 14 -35z m148 14
c3 -12 2 -12 -7 1 -9 12 -11 12 -16 -2 -9 -23 4 -45 16 -27 7 11 9 10 9 -3 0
-23 -26 -23 -34 -2 -8 22 3 56 17 51 6 -2 12 -10 15 -18z m52 -14 c0 -37 -22
-49 -34 -19 -9 23 2 54 20 54 9 0 14 -11 14 -35z m96 17 c1 -7 0 -8 -3 -2 -2
5 -9 8 -14 4 -5 -3 -9 0 -9 6 0 15 23 7 26 -8z m54 -17 c0 -37 -22 -49 -34
-19 -9 23 2 54 20 54 9 0 14 -11 14 -35z m50 18 c0 -15 -2 -16 -10 -3 -8 12
-10 12 -15 -2 -9 -23 4 -45 16 -27 7 11 9 10 9 -3 0 -23 -26 -23 -34 -2 -9 23
2 54 20 54 8 0 14 -8 14 -17z m50 -18 c0 -37 -22 -49 -34 -19 -9 23 2 54 20
54 9 0 14 -11 14 -35z m50 18 c0 -15 -2 -16 -10 -3 -8 12 -10 12 -15 -2 -9
-23 4 -45 16 -27 7 11 9 10 9 -3 0 -23 -26 -23 -34 -2 -9 23 2 54 20 54 8 0
14 -8 14 -17z m50 -18 c0 -37 -22 -49 -34 -19 -9 23 2 54 20 54 9 0 14 -11 14
-35z m498 14 c3 -12 2 -12 -7 1 -9 12 -11 12 -16 -2 -9 -23 4 -45 16 -27 7 11
9 10 9 -3 0 -23 -26 -23 -34 -2 -8 22 3 56 17 51 6 -2 12 -10 15 -18z m248 3
c1 -7 0 -8 -3 -2 -2 5 -9 8 -14 4 -5 -3 -9 0 -9 6 0 15 23 7 26 -8z m54 -17
c0 -37 -22 -49 -34 -19 -9 23 2 54 20 54 9 0 14 -11 14 -35z m-2513 -22 c-3
-10 -5 -2 -5 17 0 19 2 27 5 18 2 -10 2 -26 0 -35z m300 0 c-3 -10 -5 -2 -5
17 0 19 2 27 5 18 2 -10 2 -26 0 -35z m500 0 c-3 -10 -5 -2 -5 17 0 19 2 27 5
18 2 -10 2 -26 0 -35z m50 0 c-3 -10 -5 -2 -5 17 0 19 2 27 5 18 2 -10 2 -26
0 -35z m50 0 c-3 -10 -5 -2 -5 17 0 19 2 27 5 18 2 -10 2 -26 0 -35z m100 0
c-3 -10 -5 -2 -5 17 0 19 2 27 5 18 2 -10 2 -26 0 -35z m50 0 c-3 -10 -5 -2
-5 17 0 19 2 27 5 18 2 -10 2 -26 0 -35z m150 0 c-3 -10 -5 -2 -5 17 0 19 2
27 5 18 2 -10 2 -26 0 -35z m50 0 c-3 -10 -5 -2 -5 17 0 19 2 27 5 18 2 -10 2
-26 0 -35z m500 0 c-3 -10 -5 -2 -5 17 0 19 2 27 5 18 2 -10 2 -26 0 -35z
m400 0 c-3 -10 -5 -2 -5 17 0 19 2 27 5 18 2 -10 2 -26 0 -35z m-2092 -2 c-8
-14 -25 -14 -25 0 0 5 5 7 10 4 6 -3 10 -1 10 6 0 7 3 10 6 6 3 -3 3 -10 -1
-16z m1400 0 c-8 -14 -25 -14 -25 0 0 5 5 7 10 4 6 -3 10 -1 10 6 0 7 3 10 6
6 3 -3 3 -10 -1 -16z m1000 0 c-8 -14 -25 -14 -25 0 0 5 5 7 10 4 6 -3 10 -1
10 6 0 7 3 10 6 6 3 -3 3 -10 -1 -16z m-2095 3 c0 -8 -19 -13 -24 -6 -3 5 1 9
9 9 8 0 15 -2 15 -3z m400 0 c0 -8 -19 -13 -24 -6 -3 5 1 9 9 9 8 0 15 -2 15
-3z m-750 -89 c0 -37 -22 -49 -34 -19 -9 23 2 54 20 54 9 0 14 -11 14 -35z
m844 27 c3 -5 -1 -9 -9 -9 -8 0 -12 4 -9 9 3 4 7 8 9 8 2 0 6 -4 9 -8z m50 0
c3 -5 -1 -9 -9 -9 -8 0 -12 4 -9 9 3 4 7 8 9 8 2 0 6 -4 9 -8z m54 -13 c3 -12
2 -12 -7 1 -9 12 -11 12 -16 -2 -9 -23 4 -45 16 -27 7 11 9 10 9 -3 0 -23 -26
-23 -34 -2 -8 22 3 56 17 51 6 -2 12 -10 15 -18z m98 3 c1 -7 0 -8 -3 -2 -2 5
-9 8 -14 4 -5 -3 -9 0 -9 6 0 15 23 7 26 -8z m52 -3 c3 -12 2 -12 -7 1 -9 12
-11 12 -16 -2 -9 -23 4 -45 16 -27 7 11 9 10 9 -3 0 -23 -26 -23 -34 -2 -8 22
3 56 17 51 6 -2 12 -10 15 -18z m102 -14 c0 -37 -22 -49 -34 -19 -9 23 2 54
20 54 9 0 14 -11 14 -35z m100 0 c0 -37 -22 -49 -34 -19 -9 23 2 54 20 54 9 0
14 -11 14 -35z m50 0 c0 -37 -22 -49 -34 -19 -9 23 2 54 20 54 9 0 14 -11 14
-35z m48 14 c3 -12 2 -12 -7 1 -9 12 -11 12 -16 -2 -9 -23 4 -45 16 -27 7 11
9 10 9 -3 0 -23 -26 -23 -34 -2 -8 22 3 56 17 51 6 -2 12 -10 15 -18z m48 3
c1 -7 0 -8 -3 -2 -2 5 -9 8 -14 4 -5 -3 -9 0 -9 6 0 15 23 7 26 -8z m52 -3 c3
-12 2 -12 -7 1 -9 12 -11 12 -16 -2 -9 -23 4 -45 16 -27 7 11 9 10 9 -3 0 -23
-26 -23 -34 -2 -8 22 3 56 17 51 6 -2 12 -10 15 -18z m50 0 c3 -12 2 -12 -7 1
-9 12 -11 12 -16 -2 -9 -23 4 -45 16 -27 7 11 9 10 9 -3 0 -23 -26 -23 -34 -2
-8 22 3 56 17 51 6 -2 12 -10 15 -18z m46 13 c3 -5 -1 -9 -9 -9 -8 0 -12 4 -9
9 3 4 7 8 9 8 2 0 6 -4 9 -8z m405 -15 c0 -9 -2 -8 -6 1 -2 6 -10 9 -15 6 -7
-4 -8 -2 -4 5 9 13 26 5 25 -12z m451 -12 c0 -37 -22 -49 -34 -19 -9 23 2 54
20 54 9 0 14 -11 14 -35z m50 0 c0 -37 -22 -49 -34 -19 -9 23 2 54 20 54 9 0
14 -11 14 -35z m-2463 -22 c-3 -10 -5 -2 -5 17 0 19 2 27 5 18 2 -10 2 -26 0
-35z m450 0 c-3 -10 -5 -2 -5 17 0 19 2 27 5 18 2 -10 2 -26 0 -35z m500 0
c-3 -10 -5 -2 -5 17 0 19 2 27 5 18 2 -10 2 -26 0 -35z m150 0 c-3 -10 -5 -2
-5 17 0 19 2 27 5 18 2 -10 2 -26 0 -35z m100 0 c-3 -10 -5 -2 -5 17 0 19 2
27 5 18 2 -10 2 -26 0 -35z m400 0 c-3 -10 -5 -2 -5 17 0 19 2 27 5 18 2 -10
2 -26 0 -35z m-596 8 c6 9 9 10 9 2 0 -19 -21 -27 -31 -12 -5 8 -9 19 -9 24 1
6 5 2 11 -9 9 -15 13 -16 20 -5z m400 0 c6 9 9 10 9 2 0 -19 -21 -27 -31 -12
-5 8 -9 19 -9 24 1 6 5 2 11 -9 9 -15 13 -16 20 -5z m554 -10 c-8 -14 -25 -14
-25 0 0 5 5 7 10 4 6 -3 10 -1 10 6 0 7 3 10 6 6 3 -3 3 -10 -1 -16z m-1145 3
c0 -8 -19 -13 -24 -6 -3 5 1 9 9 9 8 0 15 -2 15 -3z m50 0 c0 -8 -19 -13 -24
-6 -3 5 1 9 9 9 8 0 15 -2 15 -3z m700 0 c0 -8 -19 -13 -24 -6 -3 5 1 9 9 9 8
0 15 -2 15 -3z m-1550 -89 c0 -37 -22 -49 -34 -19 -9 23 2 54 20 54 9 0 14
-11 14 -35z m344 27 c3 -5 -1 -9 -9 -9 -8 0 -12 4 -9 9 3 4 7 8 9 8 2 0 6 -4
9 -8z m500 0 c3 -5 -1 -9 -9 -9 -8 0 -12 4 -9 9 3 4 7 8 9 8 2 0 6 -4 9 -8z
m656 -9 c0 -15 -2 -16 -10 -3 -8 12 -10 12 -15 -2 -9 -23 4 -45 16 -27 7 11 9
10 9 -3 0 -23 -26 -23 -34 -2 -9 23 2 54 20 54 8 0 14 -8 14 -17z m44 9 c3 -5
-1 -9 -9 -9 -8 0 -12 4 -9 9 3 4 7 8 9 8 2 0 6 -4 9 -8z m458 -9 c6 -27 -3
-53 -17 -53 -17 0 -27 28 -20 51 8 24 32 25 37 2z m-2065 -40 c-3 -10 -5 -2
-5 17 0 19 2 27 5 18 2 -10 2 -26 0 -35z m452 15 c-1 -31 -1 -31 -8 -8 -5 14
-6 28 -4 33 9 15 13 6 12 -25z m498 -15 c-3 -10 -5 -2 -5 17 0 19 2 27 5 18 2
-10 2 -26 0 -35z m50 0 c-3 -10 -5 -2 -5 17 0 19 2 27 5 18 2 -10 2 -26 0 -35z
m500 0 c-3 -10 -5 -2 -5 17 0 19 2 27 5 18 2 -10 2 -26 0 -35z m600 0 c-3 -10
-5 -2 -5 17 0 19 2 27 5 18 2 -10 2 -26 0 -35z m300 0 c-3 -10 -5 -2 -5 17 0
19 2 27 5 18 2 -10 2 -26 0 -35z m50 0 c-3 -10 -5 -2 -5 17 0 19 2 27 5 18 2
-10 2 -26 0 -35z m50 0 c-3 -10 -5 -2 -5 17 0 19 2 27 5 18 2 -10 2 -26 0 -35z
m-2087 1 c0 -8 -19 -13 -24 -6 -3 5 1 9 9 9 8 0 15 -2 15 -3z m500 0 c0 -8
-19 -13 -24 -6 -3 5 1 9 9 9 8 0 15 -2 15 -3z m700 0 c0 -8 -19 -13 -24 -6 -3
5 1 9 9 9 8 0 15 -2 15 -3z m-1550 -89 c0 -37 -22 -49 -34 -19 -9 23 2 54 20
54 9 0 14 -11 14 -35z m649 12 c0 -9 -2 -8 -6 1 -2 6 -10 9 -15 6 -7 -4 -8 -2
-4 5 9 13 26 5 25 -12z m199 2 c3 -12 2 -12 -7 1 -9 12 -11 12 -16 -2 -9 -23
4 -45 16 -27 7 11 9 10 9 -3 0 -23 -26 -23 -34 -2 -8 22 3 56 17 51 6 -2 12
-10 15 -18z m100 0 c3 -12 2 -12 -7 1 -9 12 -11 12 -16 -2 -9 -23 4 -45 16
-27 7 11 9 10 9 -3 0 -23 -26 -23 -34 -2 -8 22 3 56 17 51 6 -2 12 -10 15 -18z
m446 13 c3 -5 -1 -9 -9 -9 -8 0 -12 4 -9 9 3 4 7 8 9 8 2 0 6 -4 9 -8z m104
-13 c3 -12 2 -12 -7 1 -9 12 -11 12 -16 -2 -9 -23 4 -45 16 -27 7 11 9 10 9
-3 0 -23 -26 -23 -34 -2 -8 22 3 56 17 51 6 -2 12 -10 15 -18z m50 0 c3 -12 2
-12 -7 1 -9 12 -11 12 -16 -2 -9 -23 4 -45 16 -27 7 11 9 10 9 -3 0 -23 -26
-23 -34 -2 -8 22 3 56 17 51 6 -2 12 -10 15 -18z m198 3 c1 -7 0 -8 -3 -2 -2
5 -9 8 -14 4 -5 -3 -9 0 -9 6 0 15 23 7 26 -8z m252 -3 c3 -12 2 -12 -7 1 -9
12 -11 12 -16 -2 -9 -23 4 -45 16 -27 7 11 9 10 9 -3 0 -23 -26 -23 -34 -2 -8
22 3 56 17 51 6 -2 12 -10 15 -18z m52 -14 c0 -37 -22 -49 -34 -19 -9 23 2 54
20 54 9 0 14 -11 14 -35z m300 18 c0 -15 -2 -16 -10 -3 -8 12 -10 12 -15 -2
-9 -23 4 -45 16 -27 7 11 9 10 9 -3 0 -23 -26 -23 -34 -2 -9 23 2 54 20 54 8
0 14 -8 14 -17z m-2313 -40 c-3 -10 -5 -2 -5 17 0 19 2 27 5 18 2 -10 2 -26 0
-35z m300 0 c-3 -10 -5 -2 -5 17 0 19 2 27 5 18 2 -10 2 -26 0 -35z m50 0 c-3
-10 -5 -2 -5 17 0 19 2 27 5 18 2 -10 2 -26 0 -35z m500 0 c-3 -10 -5 -2 -5
17 0 19 2 27 5 18 2 -10 2 -26 0 -35z m100 0 c-3 -10 -5 -2 -5 17 0 19 2 27 5
18 2 -10 2 -26 0 -35z m450 0 c-3 -10 -5 -2 -5 17 0 19 2 27 5 18 2 -10 2 -26
0 -35z m950 0 c-3 -10 -5 -2 -5 17 0 19 2 27 5 18 2 -10 2 -26 0 -35z m-1742
-2 c-8 -14 -25 -14 -25 0 0 5 5 7 10 4 6 -3 10 -1 10 6 0 7 3 10 6 6 3 -3 3
-10 -1 -16z m1100 0 c-8 -14 -25 -14 -25 0 0 5 5 7 10 4 6 -3 10 -1 10 6 0 7
3 10 6 6 3 -3 3 -10 -1 -16z m-345 3 c0 -8 -19 -13 -24 -6 -3 5 1 9 9 9 8 0
15 -2 15 -3z m-1350 -89 c0 -37 -22 -49 -34 -19 -9 23 2 54 20 54 9 0 14 -11
14 -35z m300 0 c0 -37 -22 -49 -34 -19 -9 23 2 54 20 54 9 0 14 -11 14 -35z
m46 17 c1 -7 0 -8 -3 -2 -2 5 -9 8 -14 4 -5 -3 -9 0 -9 6 0 15 23 7 26 -8z
m248 10 c3 -5 -1 -9 -9 -9 -8 0 -12 4 -9 9 3 4 7 8 9 8 2 0 6 -4 9 -8z m304
-13 c3 -12 2 -12 -7 1 -9 12 -11 12 -16 -2 -9 -23 4 -45 16 -27 7 11 9 10 9
-3 0 -23 -26 -23 -34 -2 -8 22 3 56 17 51 6 -2 12 -10 15 -18z m52 4 c0 -15
-2 -16 -10 -3 -8 12 -10 12 -15 -2 -9 -23 4 -45 16 -27 7 11 9 10 9 -3 0 -23
-26 -23 -34 -2 -9 23 2 54 20 54 8 0 14 -8 14 -17z m46 -1 c1 -7 0 -8 -3 -2
-2 5 -9 8 -14 4 -5 -3 -9 0 -9 6 0 15 23 7 26 -8z m354 1 c0 -15 -2 -16 -10
-3 -8 12 -10 12 -15 -2 -9 -23 4 -45 16 -27 7 11 9 10 9 -3 0 -23 -26 -23 -34
-2 -9 23 2 54 20 54 8 0 14 -8 14 -17z m50 0 c0 -15 -2 -16 -10 -3 -8 12 -10
12 -15 -2 -9 -23 4 -45 16 -27 7 11 9 10 9 -3 0 -23 -26 -23 -34 -2 -9 23 2
54 20 54 8 0 14 -8 14 -17z m294 9 c3 -5 -1 -9 -9 -9 -8 0 -12 4 -9 9 3 4 7 8
9 8 2 0 6 -4 9 -8z m56 -27 c0 -37 -22 -49 -34 -19 -9 23 2 54 20 54 9 0 14
-11 14 -35z m250 0 c0 -37 -22 -49 -34 -19 -9 23 2 54 20 54 9 0 14 -11 14
-35z m300 0 c0 -37 -22 -49 -34 -19 -9 23 2 54 20 54 9 0 14 -11 14 -35z
m-2363 -22 c-3 -10 -5 -2 -5 17 0 19 2 27 5 18 2 -10 2 -26 0 -35z m100 0 c-3
-10 -5 -2 -5 17 0 19 2 27 5 18 2 -10 2 -26 0 -35z m500 0 c-3 -10 -5 -2 -5
17 0 19 2 27 5 18 2 -10 2 -26 0 -35z m300 0 c-3 -10 -5 -2 -5 17 0 19 2 27 5
18 2 -10 2 -26 0 -35z m450 0 c-3 -10 -5 -2 -5 17 0 19 2 27 5 18 2 -10 2 -26
0 -35z m150 0 c-3 -10 -5 -2 -5 17 0 19 2 27 5 18 2 -10 2 -26 0 -35z m500 0
c-3 -10 -5 -2 -5 17 0 19 2 27 5 18 2 -10 2 -26 0 -35z m300 0 c-3 -10 -5 -2
-5 17 0 19 2 27 5 18 2 -10 2 -26 0 -35z m100 0 c-3 -10 -5 -2 -5 17 0 19 2
27 5 18 2 -10 2 -26 0 -35z m-1346 8 c6 9 9 10 9 2 0 -19 -21 -27 -31 -12 -5
8 -9 19 -9 24 1 6 5 2 11 -9 9 -15 13 -16 20 -5z m-646 -10 c-8 -14 -25 -14
-25 0 0 5 5 7 10 4 6 -3 10 -1 10 6 0 7 3 10 6 6 3 -3 3 -10 -1 -16z m255 3
c0 -8 -19 -13 -24 -6 -3 5 1 9 9 9 8 0 15 -2 15 -3z m1100 0 c0 -8 -19 -13
-24 -6 -3 5 1 9 9 9 8 0 15 -2 15 -3z m-1351 -77 c0 -9 -2 -8 -6 1 -2 6 -10 9
-15 6 -7 -4 -8 -2 -4 5 9 13 26 5 25 -12z m201 -12 c0 -37 -22 -49 -34 -19 -9
23 2 54 20 54 9 0 14 -11 14 -35z m1146 17 c1 -7 0 -8 -3 -2 -2 5 -9 8 -14 4
-5 -3 -9 0 -9 6 0 15 23 7 26 -8z m106 1 c6 -27 -3 -53 -17 -53 -17 0 -27 28
-20 51 8 24 32 25 37 2z m448 -18 c0 -37 -22 -49 -34 -19 -9 23 2 54 20 54 9
0 14 -11 14 -35z m-2263 -22 c-3 -10 -5 -2 -5 17 0 19 2 27 5 18 2 -10 2 -26
0 -35z m50 0 c-3 -10 -5 -2 -5 17 0 19 2 27 5 18 2 -10 2 -26 0 -35z m450 0
c-3 -10 -5 -2 -5 17 0 19 2 27 5 18 2 -10 2 -26 0 -35z m100 0 c-3 -10 -5 -2
-5 17 0 19 2 27 5 18 2 -10 2 -26 0 -35z m1150 0 c-3 -10 -5 -2 -5 17 0 19 2
27 5 18 2 -10 2 -26 0 -35z m200 0 c-3 -10 -5 -2 -5 17 0 19 2 27 5 18 2 -10
2 -26 0 -35z m350 0 c-3 -10 -5 -2 -5 17 0 19 2 27 5 18 2 -10 2 -26 0 -35z
m-592 -2 c-8 -14 -25 -14 -25 0 0 5 5 7 10 4 6 -3 10 -1 10 6 0 7 3 10 6 6 3
-3 3 -10 -1 -16z m-1345 3 c0 -8 -19 -13 -24 -6 -3 5 1 9 9 9 8 0 15 -2 15 -3z
m150 -89 c0 -37 -22 -49 -34 -19 -9 23 2 54 20 54 9 0 14 -11 14 -35z m499 12
c0 -9 -2 -8 -6 1 -2 6 -10 9 -15 6 -7 -4 -8 -2 -4 5 9 13 26 5 25 -12z m101
-12 c0 -37 -22 -49 -34 -19 -9 23 2 54 20 54 9 0 14 -11 14 -35z m194 27 c3
-5 -1 -9 -9 -9 -8 0 -12 4 -9 9 3 4 7 8 9 8 2 0 6 -4 9 -8z m250 0 c3 -5 -1
-9 -9 -9 -8 0 -12 4 -9 9 3 4 7 8 9 8 2 0 6 -4 9 -8z m708 -9 c6 -27 -3 -53
-17 -53 -17 0 -27 28 -20 51 8 24 32 25 37 2z m-2265 -40 c-3 -10 -5 -2 -5 17
0 19 2 27 5 18 2 -10 2 -26 0 -35z m50 0 c-3 -10 -5 -2 -5 17 0 19 2 27 5 18
2 -10 2 -26 0 -35z m50 0 c-3 -10 -5 -2 -5 17 0 19 2 27 5 18 2 -10 2 -26 0
-35z m450 0 c-3 -10 -5 -2 -5 17 0 19 2 27 5 18 2 -10 2 -26 0 -35z m200 0
c-3 -10 -5 -2 -5 17 0 19 2 27 5 18 2 -10 2 -26 0 -35z m300 0 c-3 -10 -5 -2
-5 17 0 19 2 27 5 18 2 -10 2 -26 0 -35z m100 0 c-3 -10 -5 -2 -5 17 0 19 2
27 5 18 2 -10 2 -26 0 -35z m50 0 c-3 -10 -5 -2 -5 17 0 19 2 27 5 18 2 -10 2
-26 0 -35z m50 0 c-3 -10 -5 -2 -5 17 0 19 2 27 5 18 2 -10 2 -26 0 -35z m500
0 c-3 -10 -5 -2 -5 17 0 19 2 27 5 18 2 -10 2 -26 0 -35z m50 0 c-3 -10 -5 -2
-5 17 0 19 2 27 5 18 2 -10 2 -26 0 -35z m50 0 c-3 -10 -5 -2 -5 17 0 19 2 27
5 18 2 -10 2 -26 0 -35z m350 0 c-3 -10 -5 -2 -5 17 0 19 2 27 5 18 2 -10 2
-26 0 -35z m-1737 1 c0 -8 -19 -13 -24 -6 -3 5 1 9 9 9 8 0 15 -2 15 -3z m550
0 c0 -8 -19 -13 -24 -6 -3 5 1 9 9 9 8 0 15 -2 15 -3z m300 0 c0 -8 -19 -13
-24 -6 -3 5 1 9 9 9 8 0 15 -2 15 -3z m250 0 c0 -8 -19 -13 -24 -6 -3 5 1 9 9
9 8 0 15 -2 15 -3z m-1406 -62 c3 -5 -1 -9 -9 -9 -8 0 -12 4 -9 9 3 4 7 8 9 8
2 0 6 -4 9 -8z m600 0 c3 -5 -1 -9 -9 -9 -8 0 -12 4 -9 9 3 4 7 8 9 8 2 0 6
-4 9 -8z m-707 -49 c-3 -10 -5 -2 -5 17 0 19 2 27 5 18 2 -10 2 -26 0 -35z
m50 0 c-3 -10 -5 -2 -5 17 0 19 2 27 5 18 2 -10 2 -26 0 -35z m400 0 c-3 -10
-5 -2 -5 17 0 19 2 27 5 18 2 -10 2 -26 0 -35z m200 0 c-3 -10 -5 -2 -5 17 0
19 2 27 5 18 2 -10 2 -26 0 -35z m400 0 c-3 -10 -5 -2 -5 17 0 19 2 27 5 18 2
-10 2 -26 0 -35z m50 0 c-3 -10 -5 -2 -5 17 0 19 2 27 5 18 2 -10 2 -26 0 -35z
m50 0 c-3 -10 -5 -2 -5 17 0 19 2 27 5 18 2 -10 2 -26 0 -35z m350 0 c-3 -10
-5 -2 -5 17 0 19 2 27 5 18 2 -10 2 -26 0 -35z m50 0 c-3 -10 -5 -2 -5 17 0
19 2 27 5 18 2 -10 2 -26 0 -35z m200 0 c-3 -10 -5 -2 -5 17 0 19 2 27 5 18 2
-10 2 -26 0 -35z m350 0 c-3 -10 -5 -2 -5 17 0 19 2 27 5 18 2 -10 2 -26 0
-35z m50 0 c-3 -10 -5 -2 -5 17 0 19 2 27 5 18 2 -10 2 -26 0 -35z m50 0 c-3
-10 -5 -2 -5 17 0 19 2 27 5 18 2 -10 2 -26 0 -35z m-2087 1 c0 -8 -19 -13
-24 -6 -3 5 1 9 9 9 8 0 15 -2 15 -3z m600 0 c0 -8 -19 -13 -24 -6 -3 5 1 9 9
9 8 0 15 -2 15 -3z m500 0 c0 -8 -19 -13 -24 -6 -3 5 1 9 9 9 8 0 15 -2 15 -3z
m-1152 -75 c3 -12 2 -12 -7 1 -9 12 -11 12 -16 -2 -9 -23 4 -45 16 -27 7 11 9
10 9 -3 0 -23 -26 -23 -34 -2 -8 22 3 56 17 51 6 -2 12 -10 15 -18z m54 4 c6
-27 -3 -53 -17 -53 -17 0 -27 28 -20 51 8 24 32 25 37 2z m342 9 c3 -5 -1 -9
-9 -9 -8 0 -12 4 -9 9 3 4 7 8 9 8 2 0 6 -4 9 -8z m1105 -15 c0 -9 -2 -8 -6 1
-2 6 -10 9 -15 6 -7 -4 -8 -2 -4 5 9 13 26 5 25 -12z m53 6 c6 -27 -3 -53 -17
-53 -17 0 -27 28 -20 51 8 24 32 25 37 2z m142 9 c3 -5 -1 -9 -9 -9 -8 0 -12
4 -9 9 3 4 7 8 9 8 2 0 6 -4 9 -8z m-1157 -49 c-3 -10 -5 -2 -5 17 0 19 2 27
5 18 2 -10 2 -26 0 -35z m50 0 c-3 -10 -5 -2 -5 17 0 19 2 27 5 18 2 -10 2
-26 0 -35z m1450 0 c-3 -10 -5 -2 -5 17 0 19 2 27 5 18 2 -10 2 -26 0 -35z
m50 0 c-3 -10 -5 -2 -5 17 0 19 2 27 5 18 2 -10 2 -26 0 -35z m-592 -2 c-8
-14 -25 -14 -25 0 0 5 5 7 10 4 6 -3 10 -1 10 6 0 7 3 10 6 6 3 -3 3 -10 -1
-16z m-1095 3 c0 -8 -19 -13 -24 -6 -3 5 1 9 9 9 8 0 15 -2 15 -3z m1300 0 c0
-8 -19 -13 -24 -6 -3 5 1 9 9 9 8 0 15 -2 15 -3z m-1598 -71 c6 -27 -3 -53
-17 -53 -17 0 -27 28 -20 51 8 24 32 25 37 2z m1244 -1 c1 -7 0 -8 -3 -2 -2 5
-9 8 -14 4 -5 -3 -9 0 -9 6 0 15 23 7 26 -8z m702 -3 c3 -12 2 -12 -7 1 -9 12
-11 12 -16 -2 -9 -23 4 -45 16 -27 7 11 9 10 9 -3 0 -23 -26 -23 -34 -2 -8 22
3 56 17 51 6 -2 12 -10 15 -18z m-2011 -36 c-3 -10 -5 -2 -5 17 0 19 2 27 5
18 2 -10 2 -26 0 -35z m100 0 c-3 -10 -5 -2 -5 17 0 19 2 27 5 18 2 -10 2 -26
0 -35z m400 0 c-3 -10 -5 -2 -5 17 0 19 2 27 5 18 2 -10 2 -26 0 -35z m200 0
c-3 -10 -5 -2 -5 17 0 19 2 27 5 18 2 -10 2 -26 0 -35z m750 0 c-3 -10 -5 -2
-5 17 0 19 2 27 5 18 2 -10 2 -26 0 -35z m50 0 c-3 -10 -5 -2 -5 17 0 19 2 27
5 18 2 -10 2 -26 0 -35z m400 0 c-3 -10 -5 -2 -5 17 0 19 2 27 5 18 2 -10 2
-26 0 -35z m50 0 c-3 -10 -5 -2 -5 17 0 19 2 27 5 18 2 -10 2 -26 0 -35z
m-646 8 c6 9 9 10 9 2 0 -19 -21 -27 -31 -12 -5 8 -9 19 -9 24 1 6 5 2 11 -9
9 -15 13 -16 20 -5z m-1243 -82 c3 -12 2 -12 -7 1 -9 12 -11 12 -16 -2 -9 -23
4 -45 16 -27 7 11 9 10 9 -3 0 -23 -26 -23 -34 -2 -8 22 3 56 17 51 6 -2 12
-10 15 -18z m54 4 c6 -27 -3 -53 -17 -53 -17 0 -27 28 -20 51 8 24 32 25 37 2z
m42 9 c3 -5 -1 -9 -9 -9 -8 0 -12 4 -9 9 3 4 7 8 9 8 2 0 6 -4 9 -8z m354 -13
c3 -12 2 -12 -7 1 -9 12 -11 12 -16 -2 -9 -23 4 -45 16 -27 7 11 9 10 9 -3 0
-23 -26 -23 -34 -2 -8 22 3 56 17 51 6 -2 12 -10 15 -18z m800 0 c3 -12 2 -12
-7 1 -9 12 -11 12 -16 -2 -9 -23 4 -45 16 -27 7 11 9 10 9 -3 0 -23 -26 -23
-34 -2 -8 22 3 56 17 51 6 -2 12 -10 15 -18z m200 0 c3 -12 2 -12 -7 1 -9 12
-11 12 -16 -2 -9 -23 4 -45 16 -27 7 11 9 10 9 -3 0 -23 -26 -23 -34 -2 -8 22
3 56 17 51 6 -2 12 -10 15 -18z m346 13 c3 -5 -1 -9 -9 -9 -8 0 -12 4 -9 9 3
4 7 8 9 8 2 0 6 -4 9 -8z m56 -9 c1 -17 2 -17 15 1 14 18 35 14 35 -7 0 -8 -3
-8 -9 2 -12 18 -25 -4 -16 -27 5 -14 7 -14 15 -2 8 13 10 12 10 -2 0 -10 -5
-18 -11 -18 -7 0 -18 8 -25 18 -13 16 -13 16 -14 0 0 -23 -26 -23 -34 -2 -9
23 2 54 20 54 8 0 14 -8 14 -17z m-1213 -40 c-3 -10 -5 -2 -5 17 0 19 2 27 5
18 2 -10 2 -26 0 -35z m-537 1 c0 -8 -19 -13 -24 -6 -3 5 1 9 9 9 8 0 15 -2
15 -3z m1700 0 c0 -8 -19 -13 -24 -6 -3 5 1 9 9 9 8 0 15 -2 15 -3z m-1106
-62 c3 -5 -1 -9 -9 -9 -8 0 -12 4 -9 9 3 4 7 8 9 8 2 0 6 -4 9 -8z m104 -13
c3 -12 2 -12 -7 1 -9 12 -11 12 -16 -2 -9 -23 4 -45 16 -27 7 11 9 10 9 -3 0
-23 -26 -23 -34 -2 -8 22 3 56 17 51 6 -2 12 -10 15 -18z m300 0 c3 -12 2 -12
-7 1 -9 12 -11 12 -16 -2 -9 -23 4 -45 16 -27 7 11 9 10 9 -3 0 -23 -26 -23
-34 -2 -8 22 3 56 17 51 6 -2 12 -10 15 -18z m146 13 c3 -5 -1 -9 -9 -9 -8 0
-12 4 -9 9 3 4 7 8 9 8 2 0 6 -4 9 -8z m502 -10 c1 -7 0 -8 -3 -2 -2 5 -9 8
-14 4 -5 -3 -9 0 -9 6 0 15 23 7 26 -8z m-1709 -39 c-3 -10 -5 -2 -5 17 0 19
2 27 5 18 2 -10 2 -26 0 -35z m50 0 c-3 -10 -5 -2 -5 17 0 19 2 27 5 18 2 -10
2 -26 0 -35z m50 0 c-3 -10 -5 -2 -5 17 0 19 2 27 5 18 2 -10 2 -26 0 -35z
m500 0 c-3 -10 -5 -2 -5 17 0 19 2 27 5 18 2 -10 2 -26 0 -35z m550 0 c-3 -10
-5 -2 -5 17 0 19 2 27 5 18 2 -10 2 -26 0 -35z m600 0 c-3 -10 -5 -2 -5 17 0
19 2 27 5 18 2 -10 2 -26 0 -35z m50 0 c-3 -10 -5 -2 -5 17 0 19 2 27 5 18 2
-10 2 -26 0 -35z m-96 8 c6 9 9 10 9 2 0 -19 -21 -27 -31 -12 -5 8 -9 19 -9
24 1 6 5 2 11 -9 9 -15 13 -16 20 -5z m-1041 -7 c0 -8 -19 -13 -24 -6 -3 5 1
9 9 9 8 0 15 -2 15 -3z m550 0 c0 -8 -19 -13 -24 -6 -3 5 1 9 9 9 8 0 15 -2
15 -3z m-1050 -89 c0 -37 -22 -49 -34 -19 -9 23 2 54 20 54 9 0 14 -11 14 -35z
m444 27 c3 -5 -1 -9 -9 -9 -8 0 -12 4 -9 9 3 4 7 8 9 8 2 0 6 -4 9 -8z m208
-9 c6 -27 -3 -53 -17 -53 -17 0 -27 28 -20 51 8 24 32 25 37 2z m392 9 c3 -5
-1 -9 -9 -9 -8 0 -12 4 -9 9 3 4 7 8 9 8 2 0 6 -4 9 -8z m456 -27 c0 -37 -22
-49 -34 -19 -9 23 2 54 20 54 9 0 14 -11 14 -35z m52 18 c6 -27 -3 -53 -17
-53 -17 0 -27 28 -20 51 8 24 32 25 37 2z m-1615 -40 c-3 -10 -5 -2 -5 17 0
19 2 27 5 18 2 -10 2 -26 0 -35z m550 0 c-3 -10 -5 -2 -5 17 0 19 2 27 5 18 2
-10 2 -26 0 -35z m50 0 c-3 -10 -5 -2 -5 17 0 19 2 27 5 18 2 -10 2 -26 0 -35z
m50 0 c-3 -10 -5 -2 -5 17 0 19 2 27 5 18 2 -10 2 -26 0 -35z m100 0 c-3 -10
-5 -2 -5 17 0 19 2 27 5 18 2 -10 2 -26 0 -35z m100 0 c-3 -10 -5 -2 -5 17 0
19 2 27 5 18 2 -10 2 -26 0 -35z m50 0 c-3 -10 -5 -2 -5 17 0 19 2 27 5 18 2
-10 2 -26 0 -35z m50 0 c-3 -10 -5 -2 -5 17 0 19 2 27 5 18 2 -10 2 -26 0 -35z
m50 0 c-3 -10 -5 -2 -5 17 0 19 2 27 5 18 2 -10 2 -26 0 -35z m-487 1 c0 -8
-19 -13 -24 -6 -3 5 1 9 9 9 8 0 15 -2 15 -3z m550 0 c0 -8 -19 -13 -24 -6 -3
5 1 9 9 9 8 0 15 -2 15 -3z m50 0 c0 -8 -19 -13 -24 -6 -3 5 1 9 9 9 8 0 15
-2 15 -3z m-1051 -77 c0 -9 -2 -8 -6 1 -2 6 -10 9 -15 6 -7 -4 -8 -2 -4 5 9
13 26 5 25 -12z m53 6 c6 -27 -3 -53 -17 -53 -17 0 -27 28 -20 51 8 24 32 25
37 2z m542 9 c3 -5 -1 -9 -9 -9 -8 0 -12 4 -9 9 3 4 7 8 9 8 2 0 6 -4 9 -8z
m52 -10 c1 -7 0 -8 -3 -2 -2 5 -9 8 -14 4 -5 -3 -9 0 -9 6 0 15 23 7 26 -8z
m52 -3 c3 -12 2 -12 -7 1 -9 12 -11 12 -16 -2 -9 -23 4 -45 16 -27 7 11 9 10
9 -3 0 -23 -26 -23 -34 -2 -8 22 3 56 17 51 6 -2 12 -10 15 -18z m48 3 c1 -7
0 -8 -3 -2 -2 5 -9 8 -14 4 -5 -3 -9 0 -9 6 0 15 23 7 26 -8z m52 -3 c3 -12 2
-12 -7 1 -9 12 -11 12 -16 -2 -9 -23 4 -45 16 -27 7 11 9 10 9 -3 0 -23 -26
-23 -34 -2 -8 22 3 56 17 51 6 -2 12 -10 15 -18z m601 -2 c0 -9 -2 -8 -6 1 -2
6 -10 9 -15 6 -7 -4 -8 -2 -4 5 9 13 26 5 25 -12z m53 6 c6 -27 -3 -53 -17
-53 -17 0 -27 28 -20 51 8 24 32 25 37 2z m-1365 -40 c-3 -10 -5 -2 -5 17 0
19 2 27 5 18 2 -10 2 -26 0 -35z m750 0 c-3 -10 -5 -2 -5 17 0 19 2 27 5 18 2
-10 2 -26 0 -35z m50 0 c-3 -10 -5 -2 -5 17 0 19 2 27 5 18 2 -10 2 -26 0 -35z
m600 0 c-3 -10 -5 -2 -5 17 0 19 2 27 5 18 2 -10 2 -26 0 -35z m-746 8 c6 9 9
10 9 2 0 -19 -21 -27 -31 -12 -5 8 -9 19 -9 24 1 6 5 2 11 -9 9 -15 13 -16 20
-5z m-746 -10 c-8 -14 -25 -14 -25 0 0 5 5 7 10 4 6 -3 10 -1 10 6 0 7 3 10 6
6 3 -3 3 -10 -1 -16z m650 0 c-8 -14 -25 -14 -25 0 0 5 5 7 10 4 6 -3 10 -1
10 6 0 7 3 10 6 6 3 -3 3 -10 -1 -16z m750 0 c-8 -14 -25 -14 -25 0 0 5 5 7
10 4 6 -3 10 -1 10 6 0 7 3 10 6 6 3 -3 3 -10 -1 -16z m-795 3 c0 -8 -19 -13
-24 -6 -3 5 1 9 9 9 8 0 15 -2 15 -3z m-502 -75 c3 -12 2 -12 -7 1 -9 12 -11
12 -16 -2 -9 -23 4 -45 16 -27 7 11 9 10 9 -3 0 -23 -26 -23 -34 -2 -8 22 3
56 17 51 6 -2 12 -10 15 -18z m54 4 c6 -27 -3 -53 -17 -53 -17 0 -27 28 -20
51 8 24 32 25 37 2z m542 9 c3 -5 -1 -9 -9 -9 -8 0 -12 4 -9 9 3 4 7 8 9 8 2
0 6 -4 9 -8z m50 0 c3 -5 -1 -9 -9 -9 -8 0 -12 4 -9 9 3 4 7 8 9 8 2 0 6 -4 9
-8z m50 0 c3 -5 -1 -9 -9 -9 -8 0 -12 4 -9 9 3 4 7 8 9 8 2 0 6 -4 9 -8z m604
-13 c3 -12 2 -12 -7 1 -9 12 -11 12 -16 -2 -9 -23 4 -45 16 -27 7 11 9 10 9
-3 0 -23 -26 -23 -34 -2 -8 22 3 56 17 51 6 -2 12 -10 15 -18z m-1211 -36 c-3
-10 -5 -2 -5 17 0 19 2 27 5 18 2 -10 2 -26 0 -35z m1100 0 c-3 -10 -5 -2 -5
17 0 19 2 27 5 18 2 -10 2 -26 0 -35z m52 15 c-1 -31 -1 -31 -8 -8 -5 14 -6
28 -4 33 9 15 13 6 12 -25z m-639 -14 c0 -8 -19 -13 -24 -6 -3 5 1 9 9 9 8 0
15 -2 15 -3z m50 0 c0 -8 -19 -13 -24 -6 -3 5 1 9 9 9 8 0 15 -2 15 -3z m50 0
c0 -8 -19 -13 -24 -6 -3 5 1 9 9 9 8 0 15 -2 15 -3z m-602 -75 c3 -12 2 -12
-7 1 -9 12 -11 12 -16 -2 -9 -23 4 -45 16 -27 7 11 9 10 9 -3 0 -23 -26 -23
-34 -2 -8 22 3 56 17 51 6 -2 12 -10 15 -18z m54 4 c6 -27 -3 -53 -17 -53 -17
0 -27 28 -20 51 8 24 32 25 37 2z m1046 -4 c3 -12 2 -12 -7 1 -9 12 -11 12
-16 -2 -9 -23 4 -45 16 -27 7 11 9 10 9 -3 0 -23 -26 -23 -34 -2 -8 22 3 56
17 51 6 -2 12 -10 15 -18z m-1011 -36 c-3 -10 -5 -2 -5 17 0 19 2 27 5 18 2
-10 2 -26 0 -35z m900 0 c-3 -10 -5 -2 -5 17 0 19 2 27 5 18 2 -10 2 -26 0
-35z m50 0 c-3 -10 -5 -2 -5 17 0 19 2 27 5 18 2 -10 2 -26 0 -35z m-885 -70
c6 -27 -3 -53 -17 -53 -17 0 -27 28 -20 51 8 24 32 25 37 2z m800 0 c6 -27 -3
-53 -17 -53 -17 0 -27 28 -20 51 8 24 32 25 37 2z m-865 -40 c-3 -10 -5 -2 -5
17 0 19 2 27 5 18 2 -10 2 -26 0 -35z m100 0 c-3 -10 -5 -2 -5 17 0 19 2 27 5
18 2 -10 2 -26 0 -35z m700 0 c-3 -10 -5 -2 -5 17 0 19 2 27 5 18 2 -10 2 -26
0 -35z m100 0 c-3 -10 -5 -2 -5 17 0 19 2 27 5 18 2 -10 2 -26 0 -35z m-741
-71 c1 -7 0 -8 -3 -2 -2 5 -9 8 -14 4 -5 -3 -9 0 -9 6 0 15 23 7 26 -8z m52
-3 c3 -12 2 -12 -7 1 -9 12 -11 12 -16 -2 -9 -23 4 -45 16 -27 7 11 9 10 9 -3
0 -23 -26 -23 -34 -2 -8 22 3 56 17 51 6 -2 12 -10 15 -18z m548 3 c1 -7 0 -8
-3 -2 -2 5 -9 8 -14 4 -5 -3 -9 0 -9 6 0 15 23 7 26 -8z m-509 -39 c-3 -10 -5
-2 -5 17 0 19 2 27 5 18 2 -10 2 -26 0 -35z m400 0 c-3 -10 -5 -2 -5 17 0 19
2 27 5 18 2 -10 2 -26 0 -35z m50 0 c-3 -10 -5 -2 -5 17 0 19 2 27 5 18 2 -10
2 -26 0 -35z m-546 8 c6 9 9 10 9 2 0 -19 -21 -27 -31 -12 -5 8 -9 19 -9 24 1
6 5 2 11 -9 9 -15 13 -16 20 -5z m600 0 c6 9 9 10 9 2 0 -19 -21 -27 -31 -12
-5 8 -9 19 -9 24 1 6 5 2 11 -9 9 -15 13 -16 20 -5z m-447 -69 c3 -5 -1 -9 -9
-9 -8 0 -12 4 -9 9 3 4 7 8 9 8 2 0 6 -4 9 -8z m104 -13 c3 -12 2 -12 -7 1 -9
12 -11 12 -16 -2 -9 -23 4 -45 16 -27 7 11 9 10 9 -3 0 -23 -26 -23 -34 -2 -8
22 3 56 17 51 6 -2 12 -10 15 -18z m48 3 c1 -7 0 -8 -3 -2 -2 5 -9 8 -14 4 -5
-3 -9 0 -9 6 0 15 23 7 26 -8z m52 -3 c3 -12 2 -12 -7 1 -9 12 -11 12 -16 -2
-9 -23 4 -45 16 -27 7 11 9 10 9 -3 0 -23 -26 -23 -34 -2 -8 22 3 56 17 51 6
-2 12 -10 15 -18z m50 0 c3 -12 2 -12 -7 1 -9 12 -11 12 -16 -2 -9 -24 4 -45
17 -27 8 12 9 11 6 0 -3 -8 -9 -16 -15 -18 -14 -5 -25 25 -17 49 6 21 26 20
32 -3z m46 13 c3 -5 -1 -9 -9 -9 -8 0 -12 4 -9 9 3 4 7 8 9 8 2 0 6 -4 9 -8z
m-257 -49 c-3 -10 -5 -2 -5 17 0 19 2 27 5 18 2 -10 2 -26 0 -35z m104 8 c6 9
9 10 9 2 0 -19 -21 -27 -31 -12 -5 8 -9 19 -9 24 1 6 5 2 11 -9 9 -15 13 -16
20 -5z m-141 -7 c0 -8 -19 -13 -24 -6 -3 5 1 9 9 9 8 0 15 -2 15 -3z m300 0
c0 -8 -19 -13 -24 -6 -3 5 1 9 9 9 8 0 15 -2 15 -3z"/>
<path d="M2493 3734 c-3 -8 -1 -20 6 -27 8 -8 11 -4 11 16 0 30 -7 35 -17 11z"/>
<path d="M4045 3740 c-3 -5 -1 -18 4 -27 9 -16 10 -14 11 10 0 28 -5 34 -15
17z"/>
<path d="M2395 3630 c-3 -5 -1 -18 4 -27 9 -16 10 -14 11 10 0 28 -5 34 -15
17z"/>
<path d="M4145 3520 c-3 -5 -1 -18 4 -27 9 -16 10 -14 11 10 0 28 -5 34 -15
17z"/>
<path d="M2193 3404 c-3 -8 -1 -20 6 -27 8 -8 11 -4 11 16 0 30 -7 35 -17 11z"/>
<path d="M4293 3404 c-3 -8 -1 -20 6 -27 8 -8 11 -4 11 16 0 30 -7 35 -17 11z"/>
<path d="M1995 3300 c-3 -5 -1 -18 4 -27 9 -16 10 -14 11 10 0 28 -5 34 -15
17z"/>
<path d="M4495 3300 c-3 -5 -1 -18 4 -27 9 -16 10 -14 11 10 0 28 -5 34 -15
17z"/>
<path d="M4543 3184 c-3 -8 -1 -20 6 -27 8 -8 11 -4 11 16 0 30 -7 35 -17 11z"/>
<path d="M1943 3074 c-3 -8 -1 -20 6 -27 8 -8 11 -4 11 16 0 30 -7 35 -17 11z"/>
<path d="M2695 3080 c-3 -5 -1 -18 4 -27 9 -16 10 -14 11 10 0 28 -5 34 -15
17z"/>
<path d="M4543 3074 c-3 -8 -1 -20 6 -27 8 -8 11 -4 11 16 0 30 -7 35 -17 11z"/>
<path d="M1993 2964 c-3 -8 -1 -20 6 -27 8 -8 11 -4 11 16 0 30 -7 35 -17 11z"/>
<path d="M4493 2964 c-3 -8 -1 -20 6 -27 8 -8 11 -4 11 16 0 30 -7 35 -17 11z"/>
<path d="M4543 2964 c-3 -8 -1 -20 6 -27 8 -8 11 -4 11 16 0 30 -7 35 -17 11z"/>
<path d="M1943 2854 c-3 -8 -1 -20 6 -27 8 -8 11 -4 11 16 0 30 -7 35 -17 11z"/>
<path d="M1993 2854 c-3 -8 -1 -20 6 -27 8 -8 11 -4 11 16 0 30 -7 35 -17 11z"/>
<path d="M2793 2854 c-3 -8 -1 -20 6 -27 8 -8 11 -4 11 16 0 30 -7 35 -17 11z"/>
<path d="M2943 2854 c-3 -8 -1 -20 6 -27 8 -8 11 -4 11 16 0 30 -7 35 -17 11z"/>
<path d="M3043 2854 c-3 -8 -1 -20 6 -27 8 -8 11 -4 11 16 0 30 -7 35 -17 11z"/>
<path d="M3093 2854 c-3 -8 -1 -20 6 -27 8 -8 11 -4 11 16 0 30 -7 35 -17 11z"/>
<path d="M3143 2854 c-3 -8 -1 -20 6 -27 8 -8 11 -4 11 16 0 30 -7 35 -17 11z"/>
<path d="M3343 2854 c-3 -8 -1 -20 6 -27 8 -8 11 -4 11 16 0 30 -7 35 -17 11z"/>
<path d="M3393 2854 c-3 -8 -1 -20 6 -27 8 -8 11 -4 11 16 0 30 -7 35 -17 11z"/>
<path d="M3493 2854 c-3 -8 -1 -20 6 -27 8 -8 11 -4 11 16 0 30 -7 35 -17 11z"/>
<path d="M3595 2860 c-3 -5 -1 -18 4 -27 9 -16 10 -14 11 10 0 28 -5 34 -15
17z"/>
<path d="M3645 2860 c-3 -5 -1 -18 4 -27 9 -16 10 -14 11 10 0 28 -5 34 -15
17z"/>
<path d="M3693 2854 c-3 -8 -1 -20 6 -27 8 -8 11 -4 11 16 0 30 -7 35 -17 11z"/>
<path d="M4493 2854 c-3 -8 -1 -20 6 -27 8 -8 11 -4 11 16 0 30 -7 35 -17 11z"/>
<path d="M3243 2744 c-3 -8 -1 -20 6 -27 8 -8 11 -4 11 16 0 30 -7 35 -17 11z"/>
<path d="M4543 2744 c-3 -8 -1 -20 6 -27 8 -8 11 -4 11 16 0 30 -7 35 -17 11z"/>
<path d="M1943 2634 c-3 -8 -1 -20 6 -27 8 -8 11 -4 11 16 0 30 -7 35 -17 11z"/>
<path d="M1993 2634 c-3 -8 -1 -20 6 -27 8 -8 11 -4 11 16 0 30 -7 35 -17 11z"/>
<path d="M2393 2634 c-3 -8 -1 -20 6 -27 8 -8 11 -4 11 16 0 30 -7 35 -17 11z"/>
<path d="M4493 2634 c-3 -8 -1 -20 6 -27 8 -8 11 -4 11 16 0 30 -7 35 -17 11z"/>
<path d="M2843 2524 c-3 -8 -1 -20 6 -27 8 -8 11 -4 11 16 0 30 -7 35 -17 11z"/>
<path d="M4493 2524 c-3 -8 -1 -20 6 -27 8 -8 11 -4 11 16 0 30 -7 35 -17 11z"/>
<path d="M3143 2414 c-3 -8 -1 -20 6 -27 8 -8 11 -4 11 16 0 30 -7 35 -17 11z"/>
<path d="M3343 2414 c-3 -8 -1 -20 6 -27 8 -8 11 -4 11 16 0 30 -7 35 -17 11z"/>
<path d="M3493 2414 c-3 -8 -1 -20 6 -27 8 -8 11 -4 11 16 0 30 -7 35 -17 11z"/>
<path d="M3593 2414 c-3 -8 -1 -20 6 -27 8 -8 11 -4 11 16 0 30 -7 35 -17 11z"/>
<path d="M3693 2414 c-3 -8 -1 -20 6 -27 8 -8 11 -4 11 16 0 30 -7 35 -17 11z"/>
<path d="M4493 2414 c-3 -8 -1 -20 6 -27 8 -8 11 -4 11 16 0 30 -7 35 -17 11z"/>
<path d="M1993 2304 c-3 -8 -1 -20 6 -27 8 -8 11 -4 11 16 0 30 -7 35 -17 11z"/>
<path d="M3193 2304 c-3 -8 -1 -20 6 -27 8 -8 11 -4 11 16 0 30 -7 35 -17 11z"/>
<path d="M3293 2304 c-3 -8 -1 -20 6 -27 8 -8 11 -4 11 16 0 30 -7 35 -17 11z"/>
<path d="M3343 2304 c-3 -8 -1 -20 6 -27 8 -8 11 -4 11 16 0 30 -7 35 -17 11z"/>
<path d="M4443 2304 c-3 -8 -1 -20 6 -27 8 -8 11 -4 11 16 0 30 -7 35 -17 11z"/>
<path d="M4493 2304 c-3 -8 -1 -20 6 -27 8 -8 11 -4 11 16 0 30 -7 35 -17 11z"/>
<path d="M2043 2194 c-3 -8 -1 -20 6 -27 8 -8 11 -4 11 16 0 30 -7 35 -17 11z"/>
<path d="M4045 2200 c-3 -5 -1 -18 4 -27 9 -16 10 -14 11 10 0 28 -5 34 -15
17z"/>
<path d="M2043 2084 c-3 -8 -1 -20 6 -27 8 -8 11 -4 11 16 0 30 -7 35 -17 11z"/>
<path d="M4093 2084 c-3 -8 -1 -20 6 -27 8 -8 11 -4 11 16 0 30 -7 35 -17 11z"/>
<path d="M2093 1974 c-3 -8 -1 -20 6 -27 8 -8 11 -4 11 16 0 30 -7 35 -17 11z"/>
<path d="M2393 1974 c-3 -8 -1 -20 6 -27 8 -8 11 -4 11 16 0 30 -7 35 -17 11z"/>
<path d="M3843 1974 c-3 -8 -1 -20 6 -27 8 -8 11 -4 11 16 0 30 -7 35 -17 11z"/>
<path d="M4093 1974 c-3 -8 -1 -20 6 -27 8 -8 11 -4 11 16 0 30 -7 35 -17 11z"/>
<path d="M4393 1974 c-3 -8 -1 -20 6 -27 8 -8 11 -4 11 16 0 30 -7 35 -17 11z"/>
<path d="M2643 1864 c-3 -8 -1 -20 6 -27 8 -8 11 -4 11 16 0 30 -7 35 -17 11z"/>
<path d="M3895 1870 c-3 -5 -1 -18 4 -27 9 -16 10 -14 11 10 0 28 -5 34 -15
17z"/>
<path d="M4343 1864 c-3 -8 -1 -20 6 -27 8 -8 11 -4 11 16 0 30 -7 35 -17 11z"/>
<path d="M2593 1754 c-3 -8 -1 -20 6 -27 8 -8 11 -4 11 16 0 30 -7 35 -17 11z"/>
<path d="M3193 1754 c-3 -8 -1 -20 6 -27 8 -8 11 -4 11 16 0 30 -7 35 -17 11z"/>
<path d="M4345 1760 c-3 -5 -1 -18 4 -27 9 -16 10 -14 11 10 0 28 -5 34 -15
17z"/>
<path d="M2245 1540 c-3 -5 -1 -18 4 -27 9 -16 10 -14 11 10 0 28 -5 34 -15
17z"/>
<path d="M3745 1540 c-3 -5 -1 -18 4 -27 9 -16 10 -14 11 10 0 28 -5 34 -15
17z"/>
<path d="M2295 1430 c-3 -5 -1 -18 4 -27 9 -16 10 -14 11 10 0 28 -5 34 -15
17z"/>
<path d="M2345 1320 c-3 -5 -1 -18 4 -27 9 -16 10 -14 11 10 0 28 -5 34 -15
17z"/>
<path d="M4145 1320 c-3 -5 -1 -18 4 -27 9 -16 10 -14 11 10 0 28 -5 34 -15
17z"/>
<path d="M2493 1094 c-3 -8 -1 -20 6 -27 8 -8 11 -4 11 16 0 30 -7 35 -17 11z"/>
<path d="M3145 1100 c-3 -5 -1 -18 4 -27 9 -16 10 -14 11 10 0 28 -5 34 -15
17z"/>
<path d="M3993 1094 c-3 -8 -1 -20 6 -27 8 -8 11 -4 11 16 0 30 -7 35 -17 11z"/>
<path d="M4045 1100 c-3 -5 -1 -18 4 -27 9 -16 10 -14 11 10 0 28 -5 34 -15
17z"/>
<path d="M2545 990 c-3 -5 -1 -18 4 -27 9 -16 10 -14 11 10 0 28 -5 34 -15 17z"/>
<path d="M3945 990 c-3 -5 -1 -18 4 -27 9 -16 10 -14 11 10 0 28 -5 34 -15 17z"/>
<path d="M2645 880 c-3 -5 -1 -18 4 -27 9 -16 10 -14 11 10 0 28 -5 34 -15 17z"/>
<path d="M2745 770 c-3 -5 -1 -18 4 -27 9 -16 10 -14 11 10 0 28 -5 34 -15 17z"/>
<path d="M2845 660 c-3 -5 -1 -18 4 -27 9 -16 10 -14 11 10 0 28 -5 34 -15 17z"/>
<path d="M3645 660 c-3 -5 -1 -18 4 -27 9 -16 10 -14 11 10 0 28 -5 34 -15 17z"/>
</g>
</svg>
